<svg xmlns="http://www.w3.org/2000/svg" width="1200" height="630" viewBox="0 0 1200 630">
  <defs>
    <linearGradient id="bg" x1="0" y1="0" x2="1" y2="1">
      <stop offset="0%" stop-color="#081e3f"/>
      <stop offset="55%" stop-color="#0a2750"/>
      <stop offset="100%" stop-color="#0b1b33"/>
    </linearGradient>
    <radialGradient id="globe" cx="35%" cy="30%" r="70%">
      <stop offset="0%" stop-color="#9ad9ff"/>
      <stop offset="55%" stop-color="#3f95ff"/>
      <stop offset="100%" stop-color="#1a4d8f"/>
    </radialGradient>
    <filter id="softGlow" x="-50%" y="-50%" width="200%" height="200%">
      <feGaussianBlur stdDeviation="14" result="blur"/>
      <feMerge>
        <feMergeNode in="blur"/>
        <feMergeNode in="SourceGraphic"/>
      </feMerge>
    </filter>
  </defs>

  <rect width="1200" height="630" fill="url(#bg)"/>

  <g transform="translate(430,88)" filter="url(#softGlow)">
    <circle cx="170" cy="170" r="170" fill="url(#globe)"/>
    <path d="M102 110c18-22 44-36 76-39 18-2 30 8 28 23-2 12-13 19-27 24-11 4-20 10-21 20-1 11 8 18 25 17 17-1 30 4 38 16 9 13 5 23-11 28-14 5-24 12-29 23-6 11-14 19-25 20-13 2-24-4-30-15-6-11-7-23-7-35-1-12-8-22-20-26-13-5-26-7-30-20-3-11 6-24 16-36z" fill="#36d08c" opacity="0.92"/>
    <path d="M250 120c15-8 33-8 46 2 11 8 13 20 4 32-8 11-20 18-34 20-13 2-24-4-28-15-4-12 0-30 12-39z" fill="#3add98" opacity="0.9"/>
    <path d="M246 196c18-5 36-3 51 7 13 9 17 21 11 34-7 15-22 24-42 27-19 2-33-4-39-17-7-14-3-36 19-51z" fill="#35cf8a" opacity="0.92"/>
    <path d="M172 218c16-7 34-7 53 0 17 7 29 18 35 34 5 15-2 29-16 38-15 10-37 13-60 7-23-6-37-19-39-36-2-17 9-34 27-43z" fill="#2fc785" opacity="0.92"/>
  </g>

</svg>
